<?xml version="1.0" standalone="no"?>
<!DOCTYPE svg PUBLIC "-//W3C//DTD SVG 20010904//EN"
 "http://www.w3.org/TR/2001/REC-SVG-20010904/DTD/svg10.dtd">
<svg version="1.0" xmlns="http://www.w3.org/2000/svg"
 width="4500.000000pt" height="4500.000000pt" viewBox="0 0 4500.000000 4500.000000"
 preserveAspectRatio="xMidYMid meet">
<metadata>
Created by potrace 1.11, written by Peter Selinger 2001-2013
</metadata>
<g transform="translate(0.000000,4500.000000) scale(0.100000,-0.100000)"
fill="#000000" stroke="none">
<path d="M21949 44776 c-2 -2 -98 -7 -214 -10 -309 -10 -563 -22 -805 -41 -30
-2 -91 -7 -135 -10 -86 -7 -148 -12 -235 -20 -30 -3 -86 -8 -125 -11 -38 -3
-81 -7 -95 -9 -14 -1 -60 -5 -102 -9 -42 -4 -85 -9 -95 -10 -10 -2 -49 -7 -88
-10 -38 -4 -83 -9 -100 -11 -16 -2 -91 -11 -165 -20 -74 -9 -146 -18 -160 -20
-51 -8 -108 -16 -151 -20 -24 -3 -55 -7 -69 -10 -14 -3 -45 -7 -70 -10 -40 -5
-59 -8 -134 -21 -10 -2 -44 -6 -75 -10 -31 -3 -65 -8 -76 -11 -11 -2 -33 -6
-50 -8 -16 -3 -41 -7 -55 -10 -14 -3 -41 -7 -60 -9 -19 -3 -89 -14 -155 -26
-66 -12 -131 -23 -145 -26 -14 -2 -52 -9 -85 -15 -63 -12 -78 -15 -135 -24
-19 -3 -55 -10 -80 -15 -25 -5 -56 -12 -70 -14 -14 -2 -36 -7 -50 -10 -14 -3
-36 -8 -50 -10 -14 -2 -45 -9 -70 -15 -25 -5 -56 -12 -70 -15 -56 -11 -139
-28 -195 -41 -33 -8 -73 -17 -90 -20 -61 -10 -385 -85 -501 -116 -43 -11 -90
-23 -104 -25 -14 -3 -43 -10 -65 -16 -22 -6 -44 -13 -50 -14 -5 -2 -23 -6 -40
-9 -16 -3 -41 -10 -55 -14 -23 -9 -63 -19 -100 -27 -8 -2 -96 -26 -195 -54
-99 -28 -189 -52 -200 -55 -11 -3 -51 -14 -90 -26 -38 -11 -101 -30 -140 -41
-38 -11 -81 -24 -95 -29 -34 -11 -232 -72 -245 -75 -14 -3 -267 -84 -285 -91
-8 -4 -18 -7 -22 -8 -5 -2 -9 -3 -10 -5 -2 -1 -10 -3 -18 -5 -8 -2 -76 -24
-150 -50 -74 -25 -139 -48 -145 -49 -5 -2 -17 -6 -25 -9 -8 -4 -49 -18 -90
-32 -41 -14 -84 -30 -95 -35 -11 -4 -40 -15 -65 -23 -102 -33 -205 -72 -211
-80 -3 -5 -9 -8 -13 -7 -4 1 -19 -2 -34 -8 -99 -37 -200 -75 -217 -83 -11 -4
-96 -38 -190 -75 -93 -37 -188 -74 -210 -84 -22 -9 -65 -27 -95 -40 -30 -12
-68 -28 -85 -35 -16 -7 -41 -17 -55 -23 -14 -5 -43 -18 -65 -28 -22 -10 -42
-19 -45 -20 -7 -1 -77 -32 -135 -59 -27 -13 -62 -27 -77 -30 -16 -4 -28 -11
-28 -16 0 -5 -9 -9 -19 -9 -11 0 -23 -5 -26 -10 -4 -6 -11 -8 -16 -5 -5 4 -9
1 -9 -4 0 -6 -4 -11 -10 -11 -11 0 -78 -30 -322 -144 -42 -20 -81 -36 -86 -36
-5 0 -15 -6 -21 -14 -6 -7 -24 -16 -40 -19 -16 -3 -36 -13 -44 -22 -9 -8 -21
-15 -27 -15 -16 0 -702 -348 -917 -465 -37 -21 -97 -54 -133 -73 -36 -19 -83
-46 -105 -59 -22 -13 -48 -26 -57 -29 -10 -4 -18 -11 -18 -16 0 -5 -4 -7 -9
-3 -5 3 -16 -2 -24 -10 -9 -8 -18 -15 -20 -15 -9 0 -222 -124 -228 -133 -3 -5
-9 -8 -13 -8 -3 1 -43 -20 -87 -46 -45 -27 -96 -57 -115 -68 -19 -11 -71 -42
-116 -70 -46 -27 -89 -51 -95 -53 -7 -2 -13 -8 -13 -13 0 -5 -4 -9 -9 -9 -12
0 -110 -60 -135 -82 -11 -10 -25 -18 -30 -18 -11 -1 -118 -68 -143 -90 -7 -5
-15 -10 -18 -10 -3 0 -39 -22 -80 -50 -41 -27 -79 -50 -85 -50 -5 0 -10 -4
-10 -10 0 -5 -7 -10 -15 -10 -8 0 -15 -4 -15 -8 0 -5 -12 -15 -27 -23 -33 -16
-82 -49 -101 -66 -7 -7 -20 -13 -28 -13 -8 0 -14 -4 -14 -8 0 -4 -15 -16 -32
-27 -18 -10 -37 -23 -43 -27 -35 -28 -143 -100 -157 -105 -10 -3 -18 -9 -18
-13 0 -5 -9 -12 -20 -15 -11 -3 -26 -12 -32 -19 -7 -6 -49 -36 -93 -66 -44
-30 -84 -59 -90 -63 -10 -8 -276 -199 -345 -247 -19 -14 -37 -27 -40 -30 -3
-3 -21 -17 -40 -30 -19 -14 -39 -28 -45 -32 -14 -12 -76 -59 -115 -88 -19 -14
-46 -35 -61 -47 -15 -13 -32 -23 -38 -23 -6 0 -11 -3 -11 -7 0 -5 -16 -19 -35
-32 -19 -13 -45 -33 -58 -45 -46 -40 -67 -56 -67 -49 0 4 -7 -3 -16 -15 -8
-12 -22 -22 -30 -22 -8 0 -14 -3 -14 -8 0 -4 -30 -30 -68 -59 -37 -28 -77 -60
-89 -70 -12 -10 -37 -29 -55 -43 -18 -14 -40 -32 -48 -40 -9 -8 -36 -31 -61
-50 -24 -19 -45 -38 -47 -42 -2 -4 -7 -8 -12 -8 -7 0 -59 -42 -102 -82 -10
-10 -20 -18 -23 -18 -3 0 -16 -10 -29 -22 -13 -13 -41 -37 -62 -54 -22 -18
-52 -44 -67 -58 -15 -14 -30 -26 -33 -26 -2 0 -12 -8 -22 -17 -10 -10 -32 -29
-48 -43 -63 -53 -234 -203 -270 -235 -12 -11 -47 -42 -79 -70 -32 -27 -76 -68
-100 -90 -23 -22 -77 -71 -120 -110 -81 -72 -111 -101 -341 -320 -301 -287
-734 -729 -994 -1014 -41 -45 -101 -110 -133 -144 -32 -34 -72 -79 -89 -99
-17 -21 -44 -53 -62 -72 -43 -46 -121 -135 -206 -235 -39 -46 -76 -89 -83 -96
-7 -7 -23 -27 -37 -44 -14 -17 -34 -41 -45 -54 -11 -13 -36 -43 -57 -68 -20
-24 -64 -78 -98 -119 -61 -74 -86 -105 -152 -186 -18 -23 -49 -61 -68 -85 -35
-42 -53 -66 -179 -230 -36 -46 -68 -86 -71 -89 -3 -3 -17 -21 -30 -40 -13 -19
-27 -37 -30 -40 -3 -3 -30 -39 -60 -80 -30 -41 -57 -77 -60 -80 -3 -3 -22 -27
-41 -55 -41 -60 -43 -62 -74 -100 -14 -16 -42 -55 -62 -85 -21 -30 -40 -57
-43 -60 -3 -3 -19 -25 -35 -50 -17 -25 -33 -46 -37 -48 -4 -2 -17 -20 -30 -40
-12 -20 -61 -91 -107 -157 -135 -192 -401 -593 -401 -604 0 -6 -5 -11 -10 -11
-6 0 -15 -10 -20 -22 -9 -24 -130 -214 -150 -235 -6 -7 -9 -13 -6 -13 5 0 -54
-93 -74 -117 -6 -7 -10 -14 -10 -17 0 -3 -29 -53 -65 -111 -36 -57 -65 -109
-65 -115 0 -5 -4 -10 -10 -10 -5 0 -12 -11 -16 -25 -3 -14 -10 -25 -15 -25 -5
0 -9 -4 -9 -10 0 -5 -16 -34 -35 -64 -19 -30 -35 -60 -35 -66 0 -5 -4 -10 -10
-10 -5 0 -10 -4 -10 -9 0 -5 -20 -44 -45 -85 -25 -42 -45 -81 -45 -85 0 -5 -4
-11 -9 -13 -5 -1 -23 -30 -40 -63 -17 -33 -41 -78 -54 -100 -13 -22 -41 -71
-62 -110 -21 -38 -43 -79 -49 -90 -6 -11 -15 -23 -21 -27 -5 -4 -6 -8 -1 -8 5
0 4 -6 -2 -12 -10 -13 -37 -63 -131 -238 -132 -246 -497 -988 -493 -1002 1 -5
-1 -8 -6 -8 -4 0 -13 -15 -21 -32 -22 -55 -37 -88 -90 -200 -27 -60 -48 -108
-45 -108 2 0 -5 -15 -16 -32 -11 -18 -20 -41 -20 -50 0 -10 -4 -18 -10 -18 -5
0 -10 -6 -10 -13 0 -7 -8 -31 -19 -53 -10 -21 -55 -127 -100 -234 -97 -231
-95 -225 -115 -272 -9 -20 -16 -40 -16 -45 0 -4 -6 -19 -13 -33 -8 -14 -26
-59 -42 -100 -15 -41 -34 -88 -41 -105 -19 -41 -194 -506 -199 -526 -2 -8 -10
-32 -19 -52 -8 -21 -16 -41 -17 -45 -1 -4 -5 -17 -10 -30 -5 -13 -9 -28 -9
-33 0 -5 -4 -17 -10 -27 -11 -20 -60 -158 -65 -185 -2 -9 -7 -22 -10 -27 -3
-5 -8 -18 -10 -27 -2 -10 -20 -65 -40 -123 -20 -58 -38 -113 -40 -123 -2 -9
-6 -21 -10 -26 -3 -5 -26 -76 -51 -158 -25 -81 -57 -184 -70 -228 -34 -108
-115 -386 -119 -407 -2 -9 -9 -26 -15 -37 -6 -12 -9 -21 -6 -21 3 0 0 -15 -6
-32 -8 -26 -41 -145 -62 -223 -1 -5 -5 -19 -9 -30 -3 -11 -8 -31 -11 -45 -2
-14 -19 -77 -36 -140 -17 -63 -33 -125 -36 -137 -2 -12 -9 -34 -14 -48 -5 -14
-8 -25 -5 -25 2 0 -1 -15 -6 -32 -6 -18 -13 -46 -15 -63 -3 -16 -10 -44 -15
-62 -6 -17 -12 -42 -14 -55 -3 -13 -15 -68 -29 -123 -13 -55 -27 -118 -32
-140 -9 -46 -11 -54 -14 -57 -1 -2 -3 -15 -4 -29 -2 -14 -6 -30 -9 -36 -4 -6
-9 -28 -12 -49 -4 -22 -8 -47 -11 -56 -3 -10 -7 -30 -10 -45 -2 -16 -13 -68
-24 -118 -11 -49 -22 -101 -24 -115 -3 -14 -12 -63 -21 -110 -9 -47 -19 -96
-21 -110 -3 -14 -9 -47 -14 -75 -11 -59 -15 -77 -40 -215 -10 -58 -21 -121
-24 -140 -3 -19 -14 -88 -26 -154 -11 -65 -22 -137 -25 -160 -3 -22 -7 -52
-10 -66 -5 -29 -9 -54 -25 -165 -6 -44 -13 -91 -15 -105 -2 -14 -7 -45 -10
-70 -3 -25 -9 -76 -15 -115 -5 -38 -12 -90 -15 -115 -3 -25 -7 -56 -10 -70 -2
-14 -7 -56 -10 -93 -4 -37 -8 -78 -11 -90 -2 -12 -6 -49 -9 -82 -3 -33 -7 -76
-10 -95 -2 -19 -7 -64 -10 -100 -4 -36 -8 -76 -10 -90 -2 -14 -7 -61 -10 -105
-4 -44 -8 -96 -10 -115 -2 -19 -6 -75 -10 -125 -4 -49 -8 -106 -10 -125 -5
-56 -21 -295 -30 -455 -11 -191 -14 -251 -22 -455 -10 -262 -10 -1305 0 -1560
13 -329 16 -395 21 -476 3 -44 8 -124 11 -179 3 -55 7 -125 10 -155 7 -84 15
-179 20 -240 4 -56 15 -191 20 -245 10 -114 16 -174 20 -200 2 -16 7 -64 11
-105 3 -41 8 -84 10 -95 2 -10 6 -49 9 -85 4 -36 8 -72 10 -80 2 -8 7 -44 10
-80 3 -36 8 -72 10 -80 2 -8 6 -40 10 -70 3 -30 8 -71 11 -90 2 -19 6 -48 8
-65 3 -16 12 -82 21 -145 9 -63 18 -128 20 -145 6 -36 9 -61 30 -190 9 -55 18
-109 20 -120 1 -11 5 -33 8 -50 5 -26 49 -275 63 -360 7 -38 8 -46 34 -180 12
-60 24 -123 27 -139 2 -16 11 -59 19 -95 8 -36 17 -77 20 -91 2 -14 10 -50 16
-80 6 -30 13 -61 14 -69 3 -15 31 -143 39 -176 3 -11 14 -60 25 -110 11 -49
22 -97 24 -105 21 -79 54 -222 61 -261 3 -14 11 -44 19 -67 9 -23 15 -45 15
-47 -1 -11 15 -78 58 -235 24 -91 46 -174 48 -185 3 -11 23 -83 46 -160 22
-77 42 -149 44 -160 2 -11 11 -42 20 -69 9 -26 18 -56 20 -65 2 -9 14 -47 25
-86 12 -38 28 -92 36 -120 8 -27 16 -54 18 -60 2 -5 6 -17 9 -25 3 -8 33 -103
67 -210 70 -221 198 -597 237 -700 3 -8 7 -19 9 -25 5 -19 42 -120 89 -240 25
-66 48 -124 49 -130 2 -5 6 -17 9 -25 3 -8 17 -44 31 -80 13 -36 30 -78 37
-95 7 -16 13 -33 14 -37 2 -5 4 -10 5 -13 1 -3 3 -8 5 -12 1 -5 7 -21 14 -38
7 -16 39 -95 71 -176 32 -80 70 -171 84 -203 14 -32 26 -65 26 -72 0 -8 5 -14
10 -14 6 0 10 -8 10 -18 0 -10 7 -28 16 -40 8 -12 13 -22 10 -22 -2 0 13 -38
35 -85 21 -47 39 -92 39 -100 0 -8 5 -15 10 -15 6 0 10 -7 10 -15 0 -8 4 -23
10 -33 5 -9 45 -96 89 -192 43 -96 98 -215 121 -265 23 -49 42 -91 42 -92 0
-1 22 -46 49 -100 27 -53 49 -102 49 -109 0 -7 3 -14 8 -16 4 -1 70 -129 146
-283 77 -154 146 -288 154 -297 8 -10 12 -18 8 -18 -3 0 0 -10 8 -22 17 -27
99 -176 124 -228 9 -19 20 -36 25 -38 4 -2 7 -12 7 -23 0 -10 5 -19 10 -19 6
0 10 -6 10 -14 0 -8 3 -16 8 -18 4 -2 19 -25 33 -53 53 -104 102 -191 117
-207 8 -10 11 -18 6 -18 -5 0 -4 -4 2 -8 5 -4 25 -34 44 -67 18 -33 41 -73 50
-90 82 -143 105 -180 112 -183 4 -2 8 -8 8 -14 0 -6 12 -29 28 -52 15 -23 38
-63 52 -89 13 -26 28 -47 32 -47 5 0 8 -5 8 -11 0 -6 18 -38 40 -71 22 -33 40
-64 40 -68 0 -4 9 -18 19 -31 10 -14 27 -39 37 -56 52 -87 110 -179 121 -191
6 -6 15 -21 18 -32 3 -11 11 -20 16 -20 5 0 9 -5 9 -11 0 -6 13 -29 29 -52 16
-23 66 -98 111 -167 46 -69 87 -128 92 -131 5 -3 10 -10 10 -15 1 -16 277
-417 290 -422 4 -2 8 -10 8 -18 0 -8 7 -17 15 -20 8 -4 12 -10 9 -15 -3 -5 -1
-9 5 -9 5 0 12 -8 15 -17 3 -10 17 -30 31 -46 14 -15 23 -27 20 -27 -4 0 1 -7
10 -16 9 -9 24 -29 33 -43 9 -14 22 -30 29 -34 7 -4 13 -12 13 -17 0 -8 40
-66 83 -120 7 -8 23 -31 37 -50 13 -19 27 -37 30 -40 3 -3 17 -21 30 -40 13
-19 27 -37 30 -40 3 -3 17 -21 30 -40 14 -19 28 -39 32 -45 27 -33 177 -227
198 -254 14 -19 33 -43 44 -55 10 -11 42 -52 72 -91 29 -38 63 -82 76 -97 13
-15 35 -42 50 -60 54 -68 183 -223 193 -234 5 -6 26 -30 45 -54 34 -43 72 -88
170 -200 26 -30 61 -71 76 -90 16 -19 40 -46 54 -60 14 -14 45 -50 70 -79 25
-29 63 -73 85 -97 22 -23 65 -71 95 -105 30 -34 73 -81 95 -104 22 -23 64 -69
94 -101 247 -269 776 -805 786 -796 3 3 5 0 5 -6 0 -6 28 -37 62 -69 34 -32
85 -80 114 -108 28 -27 93 -88 144 -135 50 -47 116 -107 145 -135 29 -27 78
-72 109 -100 31 -27 74 -66 94 -85 21 -19 60 -54 87 -78 28 -23 61 -53 75 -65
14 -13 59 -52 100 -87 41 -36 80 -70 86 -76 6 -5 31 -26 54 -45 23 -18 63 -52
88 -74 24 -22 54 -46 66 -54 12 -8 33 -27 49 -43 15 -15 30 -28 33 -28 6 0 22
-13 69 -58 20 -17 38 -32 40 -32 3 0 14 -8 24 -18 33 -30 75 -64 123 -101 27
-19 48 -39 48 -43 0 -4 4 -8 10 -8 10 0 27 -13 89 -67 20 -18 39 -33 42 -33 3
0 17 -9 30 -21 13 -11 58 -46 99 -77 41 -32 84 -65 95 -75 11 -10 35 -27 53
-38 17 -12 32 -24 32 -29 0 -5 8 -11 18 -14 9 -3 28 -16 42 -28 14 -13 39 -32
55 -42 17 -10 37 -25 45 -33 8 -8 89 -68 180 -133 91 -66 174 -127 185 -136
11 -9 30 -21 43 -27 12 -5 22 -14 22 -19 0 -4 6 -8 14 -8 8 0 16 -4 18 -8 1
-4 41 -34 88 -66 47 -33 88 -64 92 -70 4 -6 8 -7 8 -3 0 5 6 2 14 -5 7 -7 22
-19 32 -26 11 -6 79 -53 153 -102 74 -50 138 -90 143 -90 4 0 8 -4 8 -8 0 -4
15 -16 33 -27 41 -24 209 -132 222 -143 6 -4 39 -26 74 -47 35 -22 75 -48 90
-57 14 -10 41 -25 59 -35 17 -9 32 -20 32 -25 0 -4 4 -8 9 -8 5 0 75 -41 155
-90 80 -50 148 -90 150 -90 3 0 25 -13 49 -30 25 -16 49 -30 55 -30 6 0 12 -4
14 -8 4 -9 197 -122 209 -122 5 0 9 -4 9 -9 0 -5 8 -11 18 -14 17 -6 93 -48
102 -57 3 -3 25 -16 50 -29 51 -26 121 -64 195 -106 136 -77 201 -112 330
-180 61 -32 143 -75 183 -97 39 -21 72 -35 72 -31 0 5 5 0 11 -9 5 -10 15 -18
22 -18 15 0 101 -43 105 -52 2 -5 7 -8 11 -8 5 0 127 -58 272 -129 145 -71
347 -167 449 -214 317 -145 371 -169 386 -172 6 -2 37 -15 70 -31 32 -16 61
-29 64 -29 3 -1 22 -9 44 -18 21 -9 40 -17 42 -17 2 0 27 -11 56 -24 85 -38
164 -71 303 -126 166 -67 169 -68 175 -67 3 0 23 -9 45 -20 22 -12 45 -22 50
-23 6 -1 19 -6 30 -10 11 -4 76 -29 145 -55 69 -26 159 -59 200 -75 364 -137
949 -332 1335 -445 50 -14 97 -29 105 -32 8 -3 20 -7 25 -8 12 -3 108 -30 200
-56 39 -11 86 -25 105 -30 19 -5 42 -12 50 -14 14 -4 159 -43 380 -101 52 -14
106 -27 120 -30 14 -3 59 -14 101 -25 42 -11 85 -21 95 -23 10 -2 60 -14 109
-26 122 -29 200 -47 260 -60 28 -6 57 -12 65 -14 33 -9 362 -77 440 -92 20 -3
113 -23 140 -29 3 0 27 -4 53 -9 27 -4 59 -9 70 -12 12 -2 72 -13 132 -24 61
-11 121 -22 134 -25 13 -2 49 -7 80 -11 31 -3 59 -8 62 -10 4 -2 24 -6 45 -10
22 -3 52 -7 67 -10 83 -13 357 -55 392 -60 22 -2 52 -7 66 -9 14 -3 41 -7 60
-9 19 -3 50 -7 69 -10 19 -3 62 -8 95 -12 33 -4 69 -8 80 -9 20 -3 93 -12 170
-21 88 -10 139 -16 154 -19 9 -1 52 -6 96 -9 44 -4 94 -9 110 -12 35 -5 91
-10 195 -19 41 -3 95 -8 120 -10 25 -3 73 -7 108 -10 136 -11 190 -15 267 -20
44 -3 107 -8 140 -10 59 -4 238 -14 365 -20 547 -27 1638 -27 2116 0 34 1 117
6 185 9 68 4 144 9 169 11 25 2 90 6 145 9 55 4 123 9 150 11 28 2 86 7 130
11 119 9 262 22 325 29 14 1 59 6 100 10 41 4 86 8 100 10 25 2 109 12 185 20
22 3 58 7 80 10 22 2 81 9 130 16 107 13 124 16 195 24 30 4 63 9 74 11 11 2
38 6 61 9 22 3 73 10 114 16 41 6 88 13 105 15 31 3 95 13 131 20 10 2 37 6
60 9 22 3 51 8 65 11 14 2 40 6 57 8 18 3 56 9 85 15 29 6 73 13 98 16 24 4
47 8 50 10 3 2 30 6 60 10 30 4 57 8 60 10 3 2 25 6 50 10 25 4 47 8 50 10 3
2 24 6 46 9 39 6 62 10 114 21 14 2 36 7 50 9 14 3 36 8 50 10 14 3 36 8 50
11 14 2 48 9 75 15 28 6 59 12 70 14 133 26 595 130 740 167 105 27 116 29
145 35 14 3 48 12 77 20 29 8 65 17 80 20 15 3 77 19 137 36 60 16 121 32 134
34 14 3 32 9 41 13 9 5 19 9 24 10 4 1 8 1 10 2 1 0 11 2 22 4 11 2 58 16 105
30 47 14 93 27 104 30 10 2 44 12 75 21 31 10 63 18 71 19 8 2 60 17 115 35
55 17 105 33 110 34 6 1 16 5 23 9 6 5 12 6 12 3 0 -3 17 1 38 8 20 8 111 38
202 66 91 28 172 54 180 57 8 4 17 7 20 8 3 0 30 9 60 20 30 11 58 20 63 21 4
1 8 2 10 4 1 1 9 3 17 5 20 4 376 129 465 163 39 14 72 27 75 28 3 0 12 3 20
7 8 3 38 13 65 23 28 10 55 21 60 24 6 4 22 10 36 13 14 4 43 14 65 23 21 10
44 19 49 20 21 6 101 36 130 49 17 8 62 26 100 41 39 14 84 32 100 40 17 7 53
22 80 32 77 30 222 90 300 124 39 17 79 34 90 39 11 5 63 27 115 50 108 47
143 62 150 64 3 1 30 13 60 27 72 33 157 72 223 102 112 51 213 98 227 107 8
5 22 12 30 15 42 16 746 368 751 376 3 5 8 9 10 7 4 -2 64 27 122 60 18 10 68
37 112 61 44 23 86 47 93 52 6 6 12 7 12 2 0 -5 4 -4 8 1 8 11 11 13 128 76
44 23 81 45 84 48 3 3 11 7 19 9 7 1 28 14 46 27 17 14 34 23 37 20 3 -3 11 1
18 10 7 8 16 15 21 15 4 0 65 34 134 75 70 41 131 75 136 75 5 0 9 3 9 8 0 4
20 16 45 27 25 11 45 22 45 25 0 3 17 14 38 25 20 11 39 23 42 26 3 4 23 17
45 29 22 12 60 35 85 51 25 16 52 32 60 36 8 3 44 25 80 48 36 23 90 57 120
76 30 18 57 37 58 41 2 5 7 8 12 8 5 0 36 18 69 40 33 22 64 40 70 40 5 0 11
3 13 8 3 7 81 61 103 72 12 5 184 120 200 132 6 5 62 43 125 85 63 42 120 81
125 85 6 5 55 39 110 77 133 92 164 114 178 126 14 12 49 36 101 71 22 15 44
30 50 35 6 5 29 23 51 39 22 16 45 33 50 37 6 5 62 46 125 93 63 47 121 90
128 97 7 7 16 13 20 13 4 0 21 14 39 30 18 17 36 30 42 30 5 0 11 4 13 8 2 4
21 21 43 37 63 47 66 49 83 68 9 9 22 17 28 17 7 0 14 3 16 8 2 4 26 25 53 47
28 22 52 42 55 45 3 3 21 17 40 30 19 14 45 35 56 47 12 13 24 23 28 23 4 0
13 6 20 12 7 7 30 27 51 43 21 17 51 41 67 55 33 29 38 33 103 85 28 22 57 46
66 55 8 8 34 30 57 48 59 48 144 120 197 167 13 11 45 39 72 61 26 23 61 54
76 68 15 14 32 26 38 26 5 0 9 7 9 15 0 8 5 15 11 15 10 0 51 35 137 117 19
18 36 33 38 33 2 0 23 19 48 42 24 24 76 72 116 108 40 36 106 98 148 137 41
40 76 73 78 73 5 0 254 243 463 451 240 241 489 500 651 679 36 39 79 86 95
104 17 18 48 53 71 77 32 35 208 235 272 309 7 8 22 27 35 41 51 58 117 137
150 176 19 23 41 48 48 56 8 7 23 26 34 41 11 16 27 35 35 44 8 9 28 32 43 51
44 56 90 111 115 138 12 13 22 27 22 31 0 4 16 24 35 44 19 20 35 41 35 46 0
6 4 12 9 14 13 5 131 156 131 168 0 6 5 8 10 5 6 -3 10 -2 10 3 0 8 27 45 73
102 7 8 26 33 42 55 17 22 36 46 42 53 7 7 13 16 13 20 0 4 14 21 30 39 17 18
30 36 30 42 0 5 4 11 8 13 5 2 23 23 40 48 42 59 89 122 102 137 6 7 21 28 34
47 13 19 29 41 37 49 8 8 48 63 89 122 41 59 87 124 103 144 15 20 30 44 33
54 4 9 10 17 15 17 5 0 9 5 9 10 0 6 9 20 20 32 11 12 20 28 20 37 0 8 3 11 6
8 4 -4 14 7 23 22 9 16 24 40 33 53 42 55 118 170 118 178 0 5 3 10 8 12 10 4
202 295 202 307 0 5 3 11 8 13 7 3 77 105 97 143 12 21 67 108 122 191 18 28
33 56 33 62 0 7 4 12 9 12 5 0 11 8 15 18 3 9 28 52 56 95 27 43 50 80 50 82
0 1 29 50 65 109 36 58 65 109 65 113 0 3 6 14 14 22 8 9 27 41 44 71 16 30
62 111 101 178 39 68 71 128 71 132 0 5 3 10 8 12 4 2 15 19 24 38 10 19 33
62 51 95 19 33 53 96 77 140 23 44 47 86 53 93 5 6 6 12 1 12 -5 0 -4 4 2 8 5
4 25 36 43 72 19 36 60 115 92 177 73 140 173 336 174 343 1 3 47 98 103 213
56 114 102 209 102 211 0 2 19 44 42 93 23 48 43 90 43 93 1 3 15 34 32 70 49
105 83 180 83 185 0 2 13 33 30 68 60 130 160 369 160 383 0 8 4 14 8 14 8 0
37 80 32 89 -1 2 2 7 7 10 5 3 17 29 27 56 11 28 27 68 36 90 16 35 29 69 35
85 1 3 5 14 10 25 9 21 83 214 118 305 12 30 22 57 22 60 1 8 56 151 72 188 8
18 15 42 16 52 1 11 6 20 11 20 5 0 6 3 3 6 -3 4 -1 16 5 28 7 11 13 26 14 31
1 6 28 82 59 170 31 88 58 167 60 175 2 8 20 62 40 120 20 58 38 110 39 115 3
13 26 86 33 105 4 8 7 17 8 20 1 3 8 25 15 50 7 25 14 47 15 50 1 3 5 12 8 20
8 21 77 250 83 275 2 11 8 31 14 45 5 14 19 59 30 100 12 41 33 113 46 160 14
47 26 92 29 100 2 8 13 49 25 90 11 41 23 82 25 90 2 8 15 59 29 113 57 213
75 283 80 307 3 14 10 43 16 65 6 22 13 51 16 65 3 14 10 43 16 65 5 22 12 49
14 60 10 54 13 66 19 74 3 5 7 22 9 38 4 23 29 141 52 238 3 11 7 34 10 50 3
17 9 44 14 60 8 25 115 556 125 619 2 11 6 37 9 56 3 19 8 46 11 60 6 32 23
125 30 170 3 19 10 58 15 85 5 28 12 64 14 80 8 53 18 119 22 140 2 10 6 37 9
60 14 98 25 168 31 200 2 11 6 40 9 65 3 25 7 59 10 75 12 80 17 113 20 145 3
19 7 51 10 70 3 19 8 55 10 80 3 25 7 61 10 80 2 19 7 60 10 90 4 30 8 66 10
80 2 14 6 54 10 90 4 36 9 79 11 95 2 17 6 57 9 90 3 33 8 78 10 100 2 22 7
72 10 110 3 39 8 88 10 110 2 22 7 76 10 120 3 44 8 100 10 125 3 25 7 83 10
130 3 47 7 114 10 150 10 142 21 362 32 645 10 278 10 1281 -1 1565 -12 323
-14 365 -21 460 -3 47 -8 126 -10 175 -5 88 -12 185 -20 275 -2 25 -7 81 -10
125 -7 100 -14 177 -20 238 -3 26 -7 71 -10 100 -3 28 -8 70 -10 92 -2 22 -7
72 -10 110 -4 39 -8 81 -10 95 -8 53 -15 107 -19 160 -5 48 -14 126 -30 240
-2 19 -10 73 -16 120 -6 47 -13 99 -16 115 -2 17 -7 48 -9 70 -3 22 -10 67
-15 100 -17 107 -52 329 -55 350 -1 11 -5 34 -8 50 -4 17 -18 98 -32 180 -25
147 -30 175 -40 225 -8 40 -24 131 -31 175 -3 22 -8 43 -10 47 -3 4 -7 24 -10
45 -2 21 -9 56 -15 78 -6 22 -13 51 -15 65 -2 14 -6 36 -9 50 -4 14 -8 39 -11
55 -3 17 -11 57 -19 90 -32 139 -39 171 -41 185 -2 8 -8 35 -14 60 -5 25 -13
56 -15 70 -3 14 -15 63 -26 110 -12 47 -23 93 -25 103 -2 9 -6 26 -9 37 -3 11
-7 29 -9 40 -3 11 -12 48 -21 83 -9 34 -19 73 -21 87 -3 14 -8 34 -11 45 -4
11 -8 25 -9 30 -8 41 -127 481 -156 580 -6 22 -13 46 -15 53 -6 24 -10 37 -15
52 -8 21 -33 104 -34 113 -1 4 -2 8 -4 10 -1 1 -3 9 -5 17 -1 8 -19 67 -38
130 -20 63 -48 156 -62 205 -15 50 -31 99 -35 110 -9 20 -43 126 -45 135 -1 8
-45 137 -92 275 -25 71 -47 136 -49 145 -3 15 -58 167 -74 205 -4 11 -25 67
-46 125 -20 58 -42 116 -47 130 -6 14 -11 27 -11 30 -3 9 -58 155 -77 200 -10
25 -43 110 -74 190 -31 80 -62 156 -70 170 -7 14 -14 30 -15 35 -1 6 -8 26
-17 45 -8 19 -19 44 -24 55 -5 11 -17 43 -28 71 -11 28 -29 71 -40 95 -10 24
-40 94 -66 154 -45 104 -62 144 -115 260 -12 28 -30 68 -40 90 -18 41 -62 135
-131 283 -21 45 -39 86 -39 91 0 5 -7 14 -15 21 -9 7 -13 15 -11 17 5 6 -323
666 -361 726 -13 20 -21 37 -18 37 3 0 -6 18 -20 40 -14 22 -25 41 -25 44 0 2
-19 39 -43 82 -24 44 -61 111 -82 149 -21 39 -48 88 -61 110 -12 22 -35 65
-50 95 -16 30 -32 57 -36 58 -4 2 -8 8 -8 13 0 5 -27 54 -60 110 -33 55 -60
103 -60 105 0 2 -18 32 -40 66 -22 35 -40 68 -40 75 0 6 -3 13 -7 15 -11 4
-113 174 -113 187 0 6 -4 11 -10 11 -5 0 -10 4 -10 9 0 10 -60 112 -71 121 -3
3 -14 21 -24 40 -10 19 -29 49 -41 66 -13 17 -24 34 -24 37 0 3 -13 25 -29 49
-79 119 -121 188 -121 197 0 5 -3 11 -8 13 -8 3 -102 144 -102 153 0 3 -7 13
-15 23 -9 9 -59 82 -112 162 -53 80 -117 174 -141 210 -25 36 -70 101 -101
145 -30 44 -59 82 -63 83 -4 2 -8 9 -8 16 0 7 -9 21 -20 31 -11 10 -20 22 -20
26 0 8 -20 36 -47 64 -7 8 -13 17 -13 22 0 4 -11 22 -25 38 -51 63 -155 206
-155 214 0 5 -7 11 -15 15 -8 3 -15 12 -15 20 0 8 -4 16 -8 18 -5 2 -32 35
-60 73 -29 39 -60 80 -70 91 -9 12 -26 34 -37 49 -44 62 -139 180 -147 183 -4
2 -8 10 -8 18 0 7 -9 19 -20 26 -11 7 -20 17 -20 21 0 5 -6 14 -12 21 -7 7
-24 28 -38 46 -43 57 -166 210 -195 243 -11 13 -190 230 -215 261 -8 10 -28
34 -45 52 -16 18 -34 39 -40 46 -5 7 -37 45 -71 83 -33 39 -69 81 -80 94 -10
13 -28 33 -39 45 -11 12 -49 55 -85 96 -36 41 -78 89 -95 107 -16 17 -51 55
-77 85 -25 29 -69 77 -97 106 -28 30 -51 55 -51 56 0 2 -37 42 -82 90 -46 47
-130 136 -188 197 -257 272 -733 738 -1052 1030 -127 116 -131 120 -204 184
-38 33 -81 73 -96 88 -16 15 -28 25 -28 23 0 -3 -13 7 -28 22 -34 32 -64 58
-202 177 -58 49 -116 99 -130 111 -14 12 -68 57 -120 100 -52 44 -96 82 -98
86 -2 5 -8 8 -12 8 -5 0 -20 10 -33 23 -13 12 -38 33 -56 47 -32 25 -57 45
-96 78 -11 10 -38 31 -60 47 -22 16 -44 34 -50 39 -5 6 -28 24 -50 40 -22 17
-42 32 -45 35 -3 4 -25 22 -50 41 -25 19 -46 38 -48 42 -2 4 -10 8 -18 8 -8 0
-14 4 -14 8 0 4 -13 15 -29 25 -15 9 -46 32 -67 52 -21 19 -42 35 -46 35 -4 0
-13 6 -20 13 -7 6 -49 39 -93 72 -44 33 -82 62 -85 65 -3 3 -13 10 -22 15 -9
6 -91 64 -181 130 -91 66 -174 126 -184 133 -57 39 -161 114 -183 132 -14 11
-30 20 -37 20 -6 0 -13 3 -15 8 -1 4 -17 17 -34 29 -82 57 -512 342 -534 353
-14 7 -27 16 -30 19 -3 4 -48 33 -100 65 -52 32 -96 63 -98 67 -2 5 -9 9 -16
9 -6 0 -29 12 -51 27 -62 43 -197 123 -207 123 -4 0 -8 5 -8 10 0 6 -4 10 -10
10 -8 0 -54 27 -150 88 -14 9 -28 15 -32 14 -5 -1 -8 2 -8 8 0 5 -7 10 -15 10
-8 0 -15 4 -15 8 0 4 -12 13 -27 19 -31 13 -105 55 -113 64 -3 3 -12 9 -20 12
-8 4 -28 15 -45 25 -67 41 -266 152 -272 152 -3 0 -17 8 -31 18 -23 16 -101
59 -232 129 -19 10 -36 21 -38 26 -2 4 -12 7 -23 7 -10 0 -19 3 -19 8 0 4 -26
20 -57 35 -32 16 -110 56 -173 88 -150 78 -474 243 -480 244 -3 0 -61 28 -130
62 -162 79 -304 147 -310 148 -3 0 -32 14 -65 29 -33 16 -78 36 -100 46 -22
10 -65 29 -95 43 -139 63 -403 177 -420 182 -3 0 -21 8 -40 17 -19 9 -75 33
-125 53 -49 21 -103 43 -120 50 -16 7 -50 21 -75 30 -25 9 -56 22 -70 28 -14
6 -27 11 -30 11 -3 1 -66 25 -140 55 -154 61 -239 93 -395 150 -60 22 -159 59
-220 81 -60 23 -117 43 -125 45 -8 2 -28 9 -45 15 -16 6 -37 13 -45 15 -8 2
-53 17 -100 33 -113 40 -392 130 -560 182 -74 23 -146 45 -160 50 -14 5 -50
15 -80 24 -30 8 -100 29 -155 45 -55 17 -136 40 -180 51 -44 12 -93 25 -110
31 -28 9 -385 104 -430 115 -11 2 -33 7 -49 10 -16 2 -33 7 -38 10 -4 3 -16 7
-25 9 -43 9 -159 36 -298 69 -82 20 -161 39 -175 41 -14 3 -34 7 -45 9 -160
37 -204 47 -232 52 -43 8 -68 13 -263 53 -189 38 -223 45 -292 56 -18 3 -44 8
-58 11 -14 3 -36 8 -50 10 -14 3 -47 9 -75 14 -27 5 -66 11 -85 14 -19 3 -78
12 -130 21 -52 9 -108 18 -125 21 -16 2 -55 9 -85 14 -30 5 -73 12 -95 15 -22
3 -71 10 -110 16 -38 6 -81 12 -95 14 -23 3 -78 11 -140 20 -25 4 -103 14
-150 19 -14 2 -65 8 -115 15 -49 6 -110 14 -135 16 -25 3 -61 8 -80 10 -19 2
-60 7 -90 10 -30 3 -71 8 -90 10 -19 2 -64 7 -100 10 -36 3 -87 8 -115 12 -68
8 -96 10 -195 18 -47 4 -101 8 -120 10 -19 2 -75 6 -125 10 -49 3 -110 8 -135
10 -41 3 -138 9 -320 20 -36 2 -126 7 -200 11 -74 3 -166 8 -205 10 -82 6
-1391 14 -1396 10z"/>
</g>
</svg>
